<?xml version="1.0" encoding="UTF-8"?> <svg xmlns="http://www.w3.org/2000/svg" width="509" height="98" viewBox="0 0 509 98" fill="none"> <path d="M33.4836 33.5176C39.4164 34.0355 44.1998 36.0332 47.8337 39.5108C51.4675 42.9883 53.2845 47.2427 53.2845 52.2741C53.2845 56.1956 52.2462 59.7471 50.1697 62.9287C48.1674 66.0362 45.3864 68.5149 41.8266 70.3647C38.3411 72.1404 34.4106 73.0283 30.0351 73.0283C27.6619 73.0283 25.0663 72.9173 22.2482 72.6954C21.21 72.6214 19.9863 72.5474 18.5773 72.4734C17.1682 72.3994 15.5738 72.3624 13.7939 72.3624L6.00702 72.4734C4.59796 72.5474 2.70687 72.5844 0.333723 72.5844C0.111241 72.5844 0 72.3624 0 71.9185C0 71.4745 0.111241 71.2526 0.333723 71.2526C2.92935 71.2526 4.82045 71.0676 6.00702 70.6976C7.26775 70.2537 8.15768 69.5138 8.6768 68.4779C9.19593 67.4421 9.45549 65.8143 9.45549 63.5946V12.2084C9.45549 9.98868 9.19593 8.36089 8.6768 7.32503C8.23184 6.28917 7.37899 5.58626 6.11826 5.21631C4.93169 4.77237 3.04059 4.5504 0.444964 4.5504C0.296643 4.5504 0.222482 4.32843 0.222482 3.88449C0.222482 3.44055 0.296643 3.21858 0.444964 3.21858L6.00702 3.32956C9.27009 3.47754 11.8657 3.55153 13.7939 3.55153C15.7962 3.55153 17.984 3.44055 20.3571 3.21858C21.1729 3.14458 22.137 3.07059 23.2494 2.9966C24.436 2.92261 25.6967 2.88562 27.0316 2.88562C33.4094 2.88562 38.2669 4.21744 41.6042 6.88109C44.9414 9.47075 46.61 12.9853 46.61 17.4247C46.61 20.9762 45.4605 24.1948 43.1615 27.0804C40.8626 29.892 37.6366 32.0378 33.4836 33.5176ZM24.918 4.77237C23.1381 4.77237 21.7662 4.95735 20.8021 5.3273C19.9122 5.69725 19.2447 6.43715 18.7997 7.547C18.4289 8.58286 18.2435 10.2106 18.2435 12.4304V33.5176L23.1381 33.6285C28.0327 33.6285 31.7037 32.2227 34.151 29.4111C36.5983 26.5995 37.822 22.9 37.822 18.3126C37.822 14.0951 36.7466 10.8026 34.596 8.43488C32.5195 5.99321 29.2935 4.77237 24.918 4.77237ZM28.2552 70.8086C33.5206 70.8086 37.4141 69.4398 39.9355 66.7022C42.5312 63.9645 43.829 60.043 43.829 54.9377C43.829 49.3145 42.2716 44.8011 39.1569 41.3975C36.0421 37.994 31.6295 36.2552 25.9192 36.1812C23.9168 36.1072 21.3583 36.1812 18.2435 36.4032V63.5946C18.2435 65.4443 18.5031 66.8871 19.0222 67.923C19.5413 68.8849 20.5054 69.6248 21.9145 70.1427C23.3235 70.5866 25.4371 70.8086 28.2552 70.8086Z" fill="#DBAF96" fill-opacity="0.2"></path> <path d="M137.417 71.2526C137.714 71.2526 137.862 71.4745 137.862 71.9185C137.862 72.3624 137.714 72.5844 137.417 72.5844C136.008 72.5844 133.747 72.5104 130.632 72.3624C127.665 72.2144 125.478 72.1404 124.069 72.1404C122.363 72.1404 120.249 72.2144 117.728 72.3624C115.206 72.5104 113.315 72.5844 112.055 72.5844C111.758 72.5844 111.61 72.3624 111.61 71.9185C111.61 71.4745 111.758 71.2526 112.055 71.2526C114.576 71.2526 116.393 71.0306 117.505 70.5866C118.618 70.0687 119.174 69.1808 119.174 67.923C119.174 66.6652 118.618 64.9264 117.505 62.7067L105.046 36.9581H84.578L75.4562 57.9343C74.418 60.376 73.8988 62.4107 73.8988 64.0385C73.8988 68.8479 77.4956 71.2526 84.6892 71.2526C85.06 71.2526 85.2454 71.4745 85.2454 71.9185C85.2454 72.3624 85.06 72.5844 84.6892 72.5844C83.3543 72.5844 81.4261 72.5104 78.9047 72.3624C76.0866 72.2144 73.6393 72.1404 71.5628 72.1404C69.6346 72.1404 67.3356 72.2144 64.6658 72.3624C62.2927 72.5104 60.3645 72.5844 58.8813 72.5844C58.5846 72.5844 58.4363 72.3624 58.4363 71.9185C58.4363 71.4745 58.5846 71.2526 58.8813 71.2526C60.9578 71.2526 62.7006 70.8456 64.1096 70.0317C65.5928 69.2178 67.0019 67.812 68.3368 65.8143C69.6717 63.8165 71.192 60.8569 72.8977 56.9355L96.592 2.44168C96.6662 2.21971 96.9258 2.10872 97.3707 2.10872C97.8157 2.03473 98.0752 2.14572 98.1494 2.44168L124.958 57.3794C127.48 62.7807 129.631 66.4432 131.41 68.3669C133.19 70.2907 135.193 71.2526 137.417 71.2526ZM85.5792 34.4054H103.823L94.256 14.4281L85.5792 34.4054Z" fill="#DBAF96" fill-opacity="0.2"></path> <path d="M216.516 3.21858C216.738 3.21858 216.85 3.44055 216.85 3.88449C216.85 4.32843 216.738 4.5504 216.516 4.5504C210.435 4.5504 207.394 8.39789 207.394 16.0929V74.0272C207.394 74.1752 207.209 74.2861 206.838 74.3601C206.541 74.4341 206.319 74.3971 206.171 74.2492L153.998 12.5413V59.8211C153.998 63.7426 154.703 66.6282 156.112 68.4779C157.595 70.3277 159.82 71.2526 162.787 71.2526C163.009 71.2526 163.12 71.4745 163.12 71.9185C163.12 72.3624 163.009 72.5844 162.787 72.5844C160.858 72.5844 159.375 72.5474 158.337 72.4734L152.664 72.3624L146.657 72.4734C145.544 72.5474 143.913 72.5844 141.762 72.5844C141.614 72.5844 141.539 72.3624 141.539 71.9185C141.539 71.4745 141.614 71.2526 141.762 71.2526C144.951 71.2526 147.287 70.3277 148.77 68.4779C150.328 66.6282 151.106 63.7426 151.106 59.8211V9.43375C147.843 6.17818 144.617 4.5504 141.428 4.5504C141.206 4.5504 141.095 4.32843 141.095 3.88449C141.095 3.44055 141.206 3.21858 141.428 3.21858L145.767 3.32956C146.657 3.40355 147.917 3.44055 149.549 3.44055L155.333 3.32956C156.001 3.25557 156.854 3.21858 157.892 3.21858C158.485 3.21858 158.893 3.36656 159.116 3.66251C159.412 3.88449 159.857 4.43941 160.45 5.3273C161.118 6.36316 162.045 7.584 163.232 8.98981L204.613 58.8222V16.0929C204.613 12.1714 203.909 9.28577 202.5 7.43602C201.091 5.51227 198.903 4.5504 195.936 4.5504C195.788 4.5504 195.714 4.32843 195.714 3.88449C195.714 3.44055 195.788 3.21858 195.936 3.21858L200.386 3.32956C202.611 3.47754 204.502 3.55153 206.059 3.55153C207.394 3.55153 209.322 3.47754 211.844 3.32956L216.516 3.21858Z" fill="#DBAF96" fill-opacity="0.2"></path> <path d="M355.397 95.4473C355.619 95.3734 355.768 95.5213 355.842 95.8913C355.99 96.2612 355.99 96.4832 355.842 96.5572C351.541 97.5191 347.017 98 342.271 98C329.812 98 317.019 95.7433 303.892 91.2299C290.766 86.7165 278.455 80.7233 266.96 73.2503C264.513 73.6942 262.029 73.9162 259.507 73.9162C252.61 73.9162 246.455 72.3254 241.041 69.1438C235.702 65.8883 231.549 61.5228 228.582 56.0476C225.69 50.4983 224.244 44.4681 224.244 37.957C224.244 30.336 226.172 23.8248 230.028 18.4236C233.885 12.9483 238.816 8.84183 244.823 6.10419C250.905 3.36656 257.097 1.99774 263.401 1.99774C270.446 1.99774 276.638 3.66251 281.978 6.99207C287.317 10.2476 291.396 14.5761 294.214 19.9774C297.107 25.3786 298.553 31.1129 298.553 37.1801C298.553 44.2091 296.625 50.6463 292.768 56.4915C288.912 62.2627 283.832 66.6652 277.528 69.6988C286.353 75.766 297.033 81.6482 309.566 87.3454C322.099 93.1167 335.225 96.0023 348.945 96.0023C351.392 96.0023 353.543 95.8173 355.397 95.4473ZM234.367 34.0725C234.367 41.1016 235.59 47.4647 238.038 53.162C240.485 58.8592 243.896 63.3356 248.272 66.5912C252.721 69.8467 257.764 71.4745 263.401 71.4745C268.147 71.4745 272.411 70.2537 276.193 67.812C279.976 65.3703 282.942 61.8188 285.093 57.1574C287.317 52.422 288.43 46.7988 288.43 40.2877C288.43 33.4066 287.206 27.2654 284.759 21.8641C282.386 16.4628 278.937 12.2454 274.413 9.21178C269.964 6.17818 264.773 4.66138 258.84 4.66138C251.127 4.66138 245.12 7.28803 240.819 12.5413C236.517 17.7207 234.367 24.8977 234.367 34.0725Z" fill="#DBAF96" fill-opacity="0.2"></path> <path d="M367.592 16.0929C367.592 12.3194 366.739 9.47075 365.033 7.547C363.402 5.54927 360.954 4.5504 357.691 4.5504C357.469 4.5504 357.358 4.32843 357.358 3.88449C357.358 3.44055 357.469 3.21858 357.691 3.21858L362.697 3.32956C365.367 3.47754 367.48 3.55153 369.038 3.55153C370.373 3.55153 372.301 3.47754 374.822 3.32956L379.606 3.21858C379.754 3.21858 379.828 3.44055 379.828 3.88449C379.828 4.32843 379.754 4.5504 379.606 4.5504C373.599 4.5504 370.595 8.39789 370.595 16.0929V47.3907C370.595 55.6776 368.148 62.1888 363.253 66.9241C358.433 71.6595 351.981 74.0272 343.897 74.0272C338.41 74.0272 333.589 72.9913 329.436 70.9196C325.283 68.7739 322.057 65.7403 319.758 61.8188C317.459 57.8233 316.31 53.162 316.31 47.8347V12.2084C316.31 9.98868 316.087 8.36089 315.642 7.32503C315.197 6.28917 314.344 5.58626 313.084 5.21631C311.897 4.77237 309.969 4.5504 307.299 4.5504C307.077 4.5504 306.965 4.32843 306.965 3.88449C306.965 3.44055 307.077 3.21858 307.299 3.21858L312.861 3.32956C316.124 3.47754 318.72 3.55153 320.648 3.55153C322.725 3.55153 325.394 3.47754 328.657 3.32956L333.997 3.21858C334.219 3.21858 334.331 3.44055 334.331 3.88449C334.331 4.32843 334.219 4.5504 333.997 4.5504C331.401 4.5504 329.473 4.77237 328.212 5.21631C327.026 5.66025 326.21 6.43715 325.765 7.547C325.32 8.58286 325.098 10.2106 325.098 12.4304V43.9502C325.098 52.681 326.989 59.3031 330.771 63.8165C334.627 68.256 340.004 70.4757 346.901 70.4757C353.353 70.4757 358.396 68.4779 362.03 64.4824C365.738 60.413 367.592 54.7527 367.592 47.5017V16.0929Z" fill="#DBAF96" fill-opacity="0.2"></path> <path d="M435.471 55.7146C435.471 55.5666 435.619 55.4926 435.916 55.4926C436.138 55.4926 436.323 55.5666 436.472 55.7146C436.694 55.7886 436.805 55.8626 436.805 55.9366C436.064 61.2639 435.693 66.2582 435.693 70.9196C435.693 71.5115 435.582 71.9555 435.359 72.2514C435.137 72.4734 434.692 72.5844 434.024 72.5844H386.636C386.413 72.5844 386.302 72.3624 386.302 71.9185C386.302 71.4745 386.413 71.2526 386.636 71.2526C389.306 71.2526 391.234 71.0676 392.42 70.6976C393.607 70.3277 394.423 69.6248 394.868 68.5889C395.312 67.4791 395.535 65.8143 395.535 63.5946V12.2084C395.535 9.98868 395.312 8.36089 394.868 7.32503C394.423 6.28917 393.57 5.58626 392.309 5.21631C391.122 4.77237 389.231 4.5504 386.636 4.5504C386.413 4.5504 386.302 4.32843 386.302 3.88449C386.302 3.44055 386.413 3.21858 386.636 3.21858H432.022C432.764 3.21858 433.134 3.55153 433.134 4.21744L433.357 18.2016C433.357 18.4236 433.134 18.5715 432.69 18.6455C432.319 18.6455 432.096 18.5345 432.022 18.3126C431.503 14.2431 430.057 11.1725 427.684 9.10079C425.311 6.95508 422.196 5.88222 418.339 5.88222H412.666C409.403 5.88222 407.215 6.36316 406.103 7.32503C404.991 8.21291 404.434 9.98868 404.434 12.6523V35.1823H416.671C420.453 35.1823 423.234 34.5534 425.014 33.2956C426.794 31.9638 427.684 29.929 427.684 27.1914C427.684 27.0434 427.869 26.9694 428.24 26.9694C428.685 26.9694 428.907 27.0434 428.907 27.1914L428.796 36.5142L428.907 41.5085C429.056 43.8762 429.13 45.7259 429.13 47.0578C429.13 47.2057 428.907 47.2797 428.462 47.2797C428.017 47.2797 427.795 47.2057 427.795 47.0578C427.795 43.8762 426.868 41.5455 425.014 40.0657C423.234 38.5119 420.342 37.735 416.337 37.735H404.434V63.1506C404.434 65.8143 404.916 67.627 405.88 68.5889C406.919 69.5508 408.958 70.0317 411.999 70.0317H419.229C423.457 70.0317 426.942 68.8109 429.686 66.3692C432.504 63.8535 434.432 60.302 435.471 55.7146Z" fill="#DBAF96" fill-opacity="0.2"></path> <path d="M464.281 5.43828C459.683 5.43828 456.086 6.73311 453.491 9.32276C450.895 11.8384 448.967 15.9079 447.706 21.5312C447.632 21.6791 447.372 21.7531 446.928 21.7531C446.557 21.7531 446.371 21.6791 446.371 21.5312C446.668 19.3854 447.002 15.9819 447.372 11.3205C447.743 6.65912 447.929 3.14459 447.929 0.776899C447.929 0.406948 448.151 0.221976 448.596 0.221976C449.041 0.221976 449.264 0.406948 449.264 0.776899C449.264 2.40468 451.303 3.21858 455.382 3.21858C461.685 3.44055 469.139 3.55153 477.741 3.55153C482.117 3.55153 486.752 3.47754 491.646 3.32956L499.211 3.21858C501.955 3.21858 503.957 3.0336 505.218 2.66364C506.479 2.29369 507.294 1.55379 507.665 0.443941C507.739 0.147979 507.962 0 508.333 0C508.778 0 509 0.147979 509 0.443941C508.778 2.51567 508.518 5.84523 508.221 10.4326C507.999 15.02 507.888 18.7195 507.888 21.5312C507.888 21.6791 507.665 21.7531 507.22 21.7531C506.849 21.7531 506.664 21.6791 506.664 21.5312C506.145 15.8339 504.662 11.7274 502.214 9.21178C499.767 6.69611 496.133 5.43828 491.313 5.43828C488.569 5.43828 486.603 5.62326 485.417 5.99321C484.23 6.28917 483.415 6.91809 482.97 7.87996C482.525 8.76784 482.302 10.2846 482.302 12.4304V63.5946C482.302 65.8883 482.525 67.553 482.97 68.5889C483.489 69.6248 484.453 70.3277 485.862 70.6976C487.271 71.0676 489.533 71.2526 492.648 71.2526C492.796 71.2526 492.87 71.4745 492.87 71.9185C492.87 72.3624 492.796 72.5844 492.648 72.5844C490.052 72.5844 488.013 72.5474 486.529 72.4734L477.741 72.3624L469.176 72.4734C467.693 72.5474 465.616 72.5844 462.946 72.5844C462.724 72.5844 462.612 72.3624 462.612 71.9185C462.612 71.4745 462.724 71.2526 462.946 71.2526C465.987 71.2526 468.212 71.0676 469.621 70.6976C471.03 70.3277 471.994 69.6248 472.513 68.5889C473.032 67.4791 473.292 65.8143 473.292 63.5946V12.2084C473.292 10.1367 473.069 8.65685 472.624 7.76897C472.179 6.8071 471.363 6.17818 470.177 5.88222C468.99 5.58626 467.025 5.43828 464.281 5.43828Z" fill="#DBAF96" fill-opacity="0.2"></path> </svg> 