<?xml version="1.0" encoding="UTF-8"?> <svg xmlns="http://www.w3.org/2000/svg" width="860" height="100" viewBox="0 0 860 100" fill="none"> <path d="M41.7634 97.8025C38.7696 97.8025 35.3267 97.6528 31.4348 97.3534C29.9379 97.2536 28.0917 97.1538 25.8963 97.054C23.7008 96.9542 21.2559 96.9043 18.5615 96.9043L8.08323 97.054C6.18717 97.1538 3.59255 97.2037 0.299379 97.2037C0.0997929 97.2037 0 96.9043 0 96.3055C0 95.7068 0.0997929 95.4074 0.299379 95.4074C3.89193 95.4074 6.53644 95.1579 8.23292 94.659C9.9294 94.16 11.077 93.2119 11.6758 91.8148C12.2745 90.3179 12.5739 88.0725 12.5739 85.0787V15.7716C12.5739 12.7778 12.2745 10.5823 11.6758 9.18519C11.077 7.78806 9.9294 6.84002 8.23292 6.34104C6.63623 5.74228 4.09151 5.4429 0.598758 5.4429C0.299379 5.4429 0.14969 5.14352 0.14969 4.54476C0.14969 3.94599 0.299379 3.64661 0.598758 3.64661L8.08323 3.7963C12.4741 3.99588 15.9669 4.09568 18.5615 4.09568C22.3536 4.09568 26.1957 3.94599 30.0876 3.64661C34.8777 3.44702 38.071 3.34722 39.6677 3.34722C49.9464 3.34722 59.0775 5.34311 67.0609 9.33488C75.0443 13.3266 81.2315 18.7654 85.6224 25.6512C90.0133 32.537 92.2087 40.2711 92.2087 48.8534C92.2087 58.5334 89.9135 67.1157 85.323 74.6003C80.8323 81.9851 74.745 87.7233 67.0609 91.8148C59.3768 95.8066 50.9443 97.8025 41.7634 97.8025ZM40.2665 95.108C47.7509 95.108 54.3373 93.4614 60.0255 90.1682C65.8135 86.7752 70.3042 81.8853 73.4975 75.4984C76.7907 69.0118 78.4373 61.2279 78.4373 52.1466C78.4373 43.4645 76.8905 35.6307 73.7969 28.6451C70.8031 21.5597 66.4621 16.0211 60.7739 12.0293C55.1855 7.93776 48.6491 5.89198 41.1646 5.89198C36.8735 5.89198 33.5803 6.14146 31.2851 6.64043C28.9899 7.13941 27.2934 8.13735 26.1957 9.63426C25.0979 11.0314 24.5491 13.177 24.5491 16.071V83.4321C24.5491 87.7233 25.5969 90.767 27.6926 92.5633C29.888 94.2598 34.0793 95.108 40.2665 95.108Z" fill="#DBAF96" fill-opacity="0.2"></path> <path d="M203.022 95.4074C203.222 95.4074 203.322 95.7068 203.322 96.3055C203.322 96.9043 203.222 97.2037 203.022 97.2037H181.317C178.922 97.2037 174.382 92.9624 167.695 84.4799C161.109 75.8976 153.226 64.1718 144.045 49.3025C141.749 49.8014 139.554 50.0509 137.458 50.0509C135.562 50.0509 133.117 49.9511 130.123 49.7515V85.0787C130.123 88.0725 130.423 90.3179 131.022 91.8148C131.62 93.2119 132.718 94.16 134.315 94.659C136.011 95.1579 138.656 95.4074 142.248 95.4074C142.548 95.4074 142.697 95.7068 142.697 96.3055C142.697 96.9043 142.548 97.2037 142.248 97.2037C139.155 97.2037 136.71 97.1538 134.914 97.054L124.136 96.9043L113.658 97.054C111.762 97.1538 109.217 97.2037 106.023 97.2037C105.724 97.2037 105.574 96.9043 105.574 96.3055C105.574 95.7068 105.724 95.4074 106.023 95.4074C109.616 95.4074 112.26 95.1579 113.957 94.659C115.653 94.16 116.801 93.2119 117.4 91.8148C117.999 90.3179 118.298 88.0725 118.298 85.0787V15.7716C118.298 12.7778 117.999 10.5823 117.4 9.18519C116.801 7.78806 115.653 6.84002 113.957 6.34104C112.36 5.74228 109.766 5.4429 106.173 5.4429C105.974 5.4429 105.874 5.14352 105.874 4.54476C105.874 3.94599 105.974 3.64661 106.173 3.64661L113.658 3.7963C118.048 3.99588 121.541 4.09568 124.136 4.09568C125.932 4.09568 127.629 4.04578 129.225 3.94599C130.822 3.8462 132.219 3.7464 133.417 3.64661C136.71 3.34723 139.803 3.19753 142.697 3.19753C151.18 3.19753 157.716 4.89403 162.307 8.28703C166.897 11.5802 169.192 16.1708 169.192 22.0586C169.192 26.749 167.795 31.1898 165.001 35.3812C162.207 39.5725 158.564 42.9655 154.074 45.5602C162.456 58.2341 169.442 68.1636 175.03 75.3488C180.718 82.4342 185.758 87.5736 190.149 90.767C194.54 93.8606 198.831 95.4074 203.022 95.4074ZM130.123 45.8596C133.916 46.2587 136.859 46.4583 138.955 46.4583C145.342 46.4583 149.882 45.0612 152.577 42.267C155.371 39.3729 156.768 34.4331 156.768 27.4475C156.768 19.5638 155.271 13.9753 152.277 10.6821C149.284 7.38889 145.142 5.74229 139.853 5.74229C137.259 5.74229 135.263 5.99178 133.866 6.49075C132.568 6.98972 131.62 7.98766 131.022 9.48457C130.423 10.8817 130.123 13.0772 130.123 16.071V45.8596Z" fill="#DBAF96" fill-opacity="0.2"></path> <path d="M273.625 74.4506C273.625 74.251 273.825 74.1512 274.224 74.1512C274.524 74.1512 274.773 74.251 274.973 74.4506C275.272 74.5504 275.422 74.6502 275.422 74.75C274.424 81.9352 273.925 88.6713 273.925 94.9583C273.925 95.7567 273.775 96.3555 273.476 96.7546C273.176 97.054 272.578 97.2037 271.679 97.2037H207.912C207.612 97.2037 207.463 96.9043 207.463 96.3055C207.463 95.7068 207.612 95.4074 207.912 95.4074C211.504 95.4074 214.099 95.1579 215.696 94.659C217.292 94.16 218.39 93.2119 218.989 91.8148C219.587 90.3179 219.887 88.0725 219.887 85.0787V15.7716C219.887 12.7778 219.587 10.5823 218.989 9.18519C218.39 7.78806 217.242 6.84002 215.546 6.34104C213.949 5.74228 211.404 5.4429 207.912 5.4429C207.612 5.4429 207.463 5.14352 207.463 4.54476C207.463 3.94599 207.612 3.64661 207.912 3.64661H268.985C269.983 3.64661 270.482 4.09568 270.482 4.99382L270.781 23.8549C270.781 24.1543 270.482 24.3539 269.883 24.4537C269.384 24.4537 269.085 24.304 268.985 24.0046C268.286 18.5159 266.341 14.3745 263.147 11.5802C259.954 8.68622 255.762 7.2392 250.573 7.2392H242.939C238.548 7.2392 235.604 7.88786 234.107 9.18519C232.61 10.3827 231.862 12.7778 231.862 16.3704V46.7577H248.328C253.417 46.7577 257.16 45.9095 259.555 44.213C261.95 42.4167 263.147 39.6723 263.147 35.9799C263.147 35.7803 263.397 35.6806 263.896 35.6806C264.494 35.6806 264.794 35.7803 264.794 35.9799L264.644 48.554L264.794 55.2901C264.993 58.4835 265.093 60.9784 265.093 62.7747C265.093 62.9743 264.794 63.0741 264.195 63.0741C263.596 63.0741 263.297 62.9743 263.297 62.7747C263.297 58.4835 262.049 55.34 259.555 53.3441C257.16 51.2485 253.268 50.2006 247.879 50.2006H231.862V84.4799C231.862 88.0725 232.511 90.5175 233.808 91.8148C235.205 93.1121 237.949 93.7608 242.041 93.7608H251.771C257.459 93.7608 262.149 92.1142 265.842 88.821C269.634 85.428 272.228 80.6379 273.625 74.4506Z" fill="#DBAF96" fill-opacity="0.2"></path> <path d="M305.658 20.412C305.658 24.2042 306.606 27.5473 308.502 30.4414C310.398 33.2356 312.693 35.6806 315.388 37.7762C318.082 39.7721 321.824 42.2171 326.614 45.1111C331.604 48.2047 335.546 50.8992 338.44 53.1944C341.434 55.3899 343.978 58.1343 346.074 61.4275C348.17 64.7207 349.217 68.6126 349.217 73.1034C349.217 77.9933 347.92 82.4342 345.326 86.4259C342.831 90.3179 339.188 93.4115 334.398 95.7068C329.708 97.9023 324.219 99 317.932 99C313.941 99 309.999 98.501 306.107 97.5031C302.215 96.6049 298.822 95.2577 295.928 93.4614C295.429 93.162 295.08 92.8128 294.88 92.4136C294.681 92.0144 294.581 91.4156 294.581 90.6173L293.084 69.2114C292.984 68.8122 293.184 68.5628 293.683 68.463C294.281 68.3632 294.631 68.5129 294.73 68.912C297.125 76.4964 300.469 82.9331 304.76 88.2222C309.051 93.5113 314.639 96.1559 321.525 96.1559C326.215 96.1559 330.107 94.9084 333.201 92.4136C336.394 89.8189 337.991 85.6276 337.991 79.8395C337.991 75.4486 336.993 71.6065 334.997 68.3133C333.001 65.0201 330.556 62.2757 327.662 60.0802C324.868 57.785 321.076 55.1903 316.286 52.2963C311.595 49.3025 307.853 46.7577 305.059 44.662C302.365 42.4666 300.069 39.822 298.173 36.7284C296.277 33.535 295.329 29.8426 295.329 25.6512C295.329 20.5617 296.676 16.2207 299.371 12.6281C302.165 9.0355 305.758 6.39095 310.148 4.69445C314.639 2.89815 319.329 2 324.219 2C330.905 2 336.943 3.14763 342.332 5.4429C343.829 6.04166 344.577 6.93981 344.577 8.13735L345.326 26.8488C345.326 27.2479 345.076 27.4974 344.577 27.5972C344.078 27.697 343.779 27.5473 343.679 27.1481C342.581 21.7593 340.236 16.6698 336.643 11.8796C333.051 6.98971 327.962 4.54476 321.375 4.54476C316.386 4.54476 312.494 6.04167 309.699 9.03549C307.005 12.0293 305.658 15.8215 305.658 20.412Z" fill="#DBAF96" fill-opacity="0.2"></path> <path d="M380.356 20.412C380.356 24.2042 381.304 27.5473 383.2 30.4414C385.096 33.2356 387.392 35.6806 390.086 37.7762C392.781 39.7721 396.523 42.2171 401.313 45.1111C406.303 48.2047 410.244 50.8992 413.138 53.1944C416.132 55.3899 418.677 58.1343 420.772 61.4275C422.868 64.7207 423.916 68.6126 423.916 73.1034C423.916 77.9933 422.619 82.4342 420.024 86.4259C417.529 90.3179 413.887 93.4115 409.097 95.7068C404.406 97.9023 398.918 99 392.631 99C388.639 99 384.697 98.501 380.805 97.5031C376.913 96.6049 373.521 95.2577 370.626 93.4614C370.128 93.162 369.778 92.8128 369.579 92.4136C369.379 92.0144 369.279 91.4156 369.279 90.6173L367.782 69.2114C367.683 68.8122 367.882 68.5628 368.381 68.463C368.98 68.3632 369.329 68.5129 369.429 68.912C371.824 76.4964 375.167 82.9331 379.458 88.2222C383.749 93.5113 389.338 96.1559 396.223 96.1559C400.914 96.1559 404.806 94.9084 407.899 92.4136C411.093 89.8189 412.689 85.6276 412.689 79.8395C412.689 75.4486 411.691 71.6065 409.695 68.3133C407.7 65.0201 405.255 62.2757 402.361 60.0802C399.566 57.785 395.774 55.1903 390.984 52.2963C386.294 49.3025 382.552 46.7577 379.758 44.662C377.063 42.4666 374.768 39.822 372.872 36.7284C370.976 33.535 370.028 29.8426 370.028 25.6512C370.028 20.5617 371.375 16.2207 374.069 12.6281C376.864 9.0355 380.456 6.39095 384.847 4.69445C389.338 2.89815 394.028 2 398.918 2C405.604 2 411.641 3.14763 417.03 5.4429C418.527 6.04166 419.276 6.93981 419.276 8.13735L420.024 26.8488C420.024 27.2479 419.775 27.4974 419.276 27.5972C418.777 27.697 418.477 27.5473 418.377 27.1481C417.28 21.7593 414.935 16.6698 411.342 11.8796C407.75 6.98971 402.66 4.54476 396.074 4.54476C391.084 4.54476 387.192 6.04167 384.398 9.03549C381.704 12.0293 380.356 15.8215 380.356 20.412Z" fill="#DBAF96" fill-opacity="0.2"></path> <path d="M529.507 2C534.097 2 538.837 2.44907 543.727 3.34722C548.617 4.14558 552.509 5.29321 555.403 6.79012C556.201 7.1893 556.7 7.63838 556.9 8.13735C557.199 8.53652 557.449 9.28498 557.648 10.3827L559.295 28.4954C559.295 28.7948 559.045 28.9943 558.546 29.0941C558.047 29.0941 557.748 28.9444 557.648 28.6451C555.054 20.8611 550.812 15.073 544.925 11.2809C539.037 7.38889 531.952 5.4429 523.669 5.4429C516.384 5.4429 510.047 7.1394 504.658 10.5324C499.269 13.8256 495.128 18.5159 492.234 24.6034C489.44 30.6908 488.043 37.7263 488.043 45.7099C488.043 54.9907 489.839 63.5231 493.431 71.3071C497.024 79.091 501.864 85.2783 507.951 89.8688C514.139 94.3596 520.875 96.6049 528.159 96.6049C542.53 96.6049 552.808 88.3719 558.995 71.9059C558.995 71.6065 559.195 71.4568 559.594 71.4568C559.894 71.4568 560.143 71.5067 560.343 71.6065C560.642 71.7063 560.792 71.856 560.792 72.0555L558.696 90.1682C558.497 91.3657 558.247 92.1641 557.948 92.5633C557.748 92.8626 557.199 93.2119 556.301 93.6111C547.12 97.2037 537.74 99 528.159 99C516.085 99 506.005 96.6049 497.922 91.8148C489.839 86.9249 483.901 80.7376 480.109 73.2531C476.317 65.7685 474.421 57.9347 474.421 49.7515C474.421 40.4707 476.966 32.2377 482.055 25.0525C487.244 17.7675 494.03 12.1291 502.413 8.13735C510.895 4.04578 519.927 2 529.507 2Z" fill="#DBAF96" fill-opacity="0.2"></path> <path d="M622.007 99C612.726 99 604.443 96.8544 597.158 92.5633C589.973 88.1723 584.385 82.2845 580.393 74.8997C576.501 67.4151 574.555 59.2819 574.555 50.5C574.555 40.2212 577.15 31.4393 582.339 24.1543C587.528 16.7695 594.164 11.231 602.248 7.53858C610.431 3.8462 618.763 2 627.246 2C636.726 2 645.059 4.24537 652.244 8.73611C659.429 13.1271 664.918 18.965 668.71 26.25C672.602 33.535 674.548 41.269 674.548 49.4522C674.548 58.5334 672.153 66.8662 667.362 74.4506C662.572 82.035 656.136 88.0226 648.053 92.4136C640.069 96.8045 631.387 99 622.007 99ZM627.246 95.7068C633.633 95.7068 639.371 94.0602 644.46 90.767C649.549 87.4738 653.541 82.6836 656.435 76.3966C659.429 70.0098 660.926 62.4254 660.926 53.6435C660.926 44.3627 659.279 36.0797 655.986 28.7948C652.793 21.5098 648.152 15.8215 642.065 11.7299C636.077 7.63837 629.092 5.59259 621.108 5.59259C610.73 5.59259 602.647 9.13529 596.859 16.2207C591.071 23.2063 588.177 32.8863 588.177 45.2608C588.177 54.7413 589.823 63.3236 593.117 71.0077C596.41 78.6919 601 84.7294 606.888 89.1204C612.876 93.5113 619.661 95.7068 627.246 95.7068Z" fill="#DBAF96" fill-opacity="0.2"></path> <path d="M728.23 97.8025C725.236 97.8025 721.793 97.6528 717.901 97.3534C716.405 97.2536 714.558 97.1538 712.363 97.054C710.167 96.9542 707.723 96.9043 705.028 96.9043L694.55 97.054C692.654 97.1538 690.059 97.2037 686.766 97.2037C686.566 97.2037 686.467 96.9043 686.467 96.3055C686.467 95.7068 686.566 95.4074 686.766 95.4074C690.359 95.4074 693.003 95.1579 694.7 94.659C696.396 94.16 697.544 93.2119 698.142 91.8148C698.741 90.3179 699.041 88.0725 699.041 85.0787V15.7716C699.041 12.7778 698.741 10.5823 698.142 9.18519C697.544 7.78806 696.396 6.84002 694.7 6.34104C693.103 5.74228 690.558 5.4429 687.065 5.4429C686.766 5.4429 686.616 5.14352 686.616 4.54476C686.616 3.94599 686.766 3.64661 687.065 3.64661L694.55 3.7963C698.941 3.99588 702.434 4.09568 705.028 4.09568C708.82 4.09568 712.662 3.94599 716.554 3.64661C721.344 3.44702 724.538 3.34722 726.134 3.34722C736.413 3.34722 745.544 5.34311 753.528 9.33488C761.511 13.3266 767.698 18.7654 772.089 25.6512C776.48 32.537 778.675 40.2711 778.675 48.8534C778.675 58.5334 776.38 67.1157 771.79 74.6003C767.299 81.9851 761.212 87.7233 753.528 91.8148C745.844 95.8066 737.411 97.8025 728.23 97.8025ZM726.733 95.108C734.218 95.108 740.804 93.4614 746.492 90.1682C752.28 86.7752 756.771 81.8853 759.964 75.4984C763.257 69.0118 764.904 61.2279 764.904 52.1466C764.904 43.4645 763.357 35.6307 760.264 28.6451C757.27 21.5597 752.929 16.0211 747.241 12.0293C741.652 7.93776 735.116 5.89198 727.631 5.89198C723.34 5.89198 720.047 6.14146 717.752 6.64043C715.457 7.13941 713.76 8.13735 712.662 9.63426C711.565 11.0314 711.016 13.177 711.016 16.071V83.4321C711.016 87.7233 712.064 90.767 714.159 92.5633C716.355 94.2598 720.546 95.108 726.733 95.108Z" fill="#DBAF96" fill-opacity="0.2"></path> <path d="M858.204 74.4506C858.204 74.251 858.403 74.1512 858.803 74.1512C859.102 74.1512 859.351 74.251 859.551 74.4506C859.85 74.5504 860 74.6502 860 74.75C859.002 81.9352 858.503 88.6713 858.503 94.9583C858.503 95.7567 858.353 96.3555 858.054 96.7546C857.755 97.054 857.156 97.2037 856.258 97.2037H792.49C792.191 97.2037 792.041 96.9043 792.041 96.3055C792.041 95.7068 792.191 95.4074 792.49 95.4074C796.083 95.4074 798.677 95.1579 800.274 94.659C801.871 94.16 802.968 93.2119 803.567 91.8148C804.166 90.3179 804.465 88.0725 804.465 85.0787V15.7716C804.465 12.7778 804.166 10.5823 803.567 9.18519C802.968 7.78806 801.821 6.84002 800.124 6.34104C798.528 5.74228 795.983 5.4429 792.49 5.4429C792.191 5.4429 792.041 5.14352 792.041 4.54476C792.041 3.94599 792.191 3.64661 792.49 3.64661H853.563C854.561 3.64661 855.06 4.09568 855.06 4.99382L855.36 23.8549C855.36 24.1543 855.06 24.3539 854.461 24.4537C853.963 24.4537 853.663 24.304 853.563 24.0046C852.865 18.5159 850.919 14.3745 847.725 11.5802C844.532 8.68622 840.341 7.2392 835.152 7.2392H827.517C823.127 7.2392 820.183 7.88786 818.686 9.18519C817.189 10.3827 816.44 12.7778 816.44 16.3704V46.7577H832.906C837.996 46.7577 841.738 45.9095 844.133 44.213C846.528 42.4167 847.725 39.6723 847.725 35.9799C847.725 35.7803 847.975 35.6806 848.474 35.6806C849.073 35.6806 849.372 35.7803 849.372 35.9799L849.222 48.554L849.372 55.2901C849.572 58.4835 849.671 60.9784 849.671 62.7747C849.671 62.9743 849.372 63.0741 848.773 63.0741C848.175 63.0741 847.875 62.9743 847.875 62.7747C847.875 58.4835 846.628 55.34 844.133 53.3441C841.738 51.2485 837.846 50.2006 832.457 50.2006H816.44V84.4799C816.44 88.0725 817.089 90.5175 818.386 91.8148C819.783 93.1121 822.528 93.7608 826.619 93.7608H836.349C842.037 93.7608 846.728 92.1142 850.42 88.821C854.212 85.428 856.807 80.6379 858.204 74.4506Z" fill="#DBAF96" fill-opacity="0.2"></path> </svg> 